<svg width="26" height="26" viewBox="0 0 26 26" fill="none" xmlns="http://www.w3.org/2000/svg">
<path fill-rule="evenodd" clip-rule="evenodd" d="M24.7257 21.1831L16.547 12.9561L24.7444 4.83534C25.081 4.49801 25.081 3.9483 24.7444 3.61098L22.413 1.2622C22.2509 1.09978 22.0327 1.01233 21.8021 1.01233C21.5714 1.01233 21.3532 1.10603 21.1912 1.2622L13.0312 9.35798L4.85868 1.26845C4.69661 1.10603 4.47842 1.01858 4.24778 1.01858C4.01713 1.01858 3.79894 1.11228 3.63687 1.26845L1.31167 3.61722C0.975048 3.95455 0.975048 4.50426 1.31167 4.84158L9.50907 12.9624L1.33661 21.1831C1.17453 21.3455 1.08102 21.5641 1.08102 21.7953C1.08102 22.0264 1.1683 22.245 1.33661 22.4074L3.66804 24.7562C3.83635 24.9249 4.05453 25.0123 4.27894 25.0123C4.49713 25.0123 4.72154 24.9311 4.88985 24.7562L13.0312 16.5605L21.1787 24.75C21.347 24.9186 21.5652 25.0061 21.7896 25.0061C22.0078 25.0061 22.2322 24.9249 22.4005 24.75L24.7319 22.4012C24.894 22.2388 24.9875 22.0201 24.9875 21.789C24.9813 21.5641 24.8878 21.3455 24.7257 21.1831V21.1831Z" fill="white" stroke="black"/>
<mask id="mask0_132_498" style="mask-type:alpha" maskUnits="userSpaceOnUse" x="1" y="1" width="24" height="25">
<path fill-rule="evenodd" clip-rule="evenodd" d="M24.7257 21.1831L16.547 12.9561L24.7444 4.83534C25.081 4.49801 25.081 3.9483 24.7444 3.61098L22.413 1.2622C22.2509 1.09978 22.0327 1.01233 21.8021 1.01233C21.5714 1.01233 21.3532 1.10603 21.1912 1.2622L13.0312 9.35798L4.85868 1.26845C4.69661 1.10603 4.47842 1.01858 4.24778 1.01858C4.01713 1.01858 3.79894 1.11228 3.63687 1.26845L1.31167 3.61722C0.975048 3.95455 0.975048 4.50426 1.31167 4.84158L9.50907 12.9624L1.33661 21.1831C1.17453 21.3455 1.08102 21.5641 1.08102 21.7953C1.08102 22.0264 1.1683 22.245 1.33661 22.4074L3.66804 24.7562C3.83635 24.9249 4.05453 25.0123 4.27894 25.0123C4.49713 25.0123 4.72154 24.9311 4.88985 24.7562L13.0312 16.5605L21.1787 24.75C21.347 24.9186 21.5652 25.0061 21.7896 25.0061C22.0078 25.0061 22.2322 24.9249 22.4005 24.75L24.7319 22.4012C24.894 22.2388 24.9875 22.0201 24.9875 21.789C24.9813 21.5641 24.8878 21.3455 24.7257 21.1831V21.1831Z" fill="white"/>
</mask>
<g mask="url(#mask0_132_498)">
<rect x="1" y="1" width="24" height="24" fill="white"/>
</g>
</svg>
