<svg width="40" height="41" viewBox="0 0 40 41" fill="none" xmlns="http://www.w3.org/2000/svg">
<path fill-rule="evenodd" clip-rule="evenodd" d="M15.9854 20.0077L30.914 4.45709C31.289 4.07301 31.2801 3.43884 30.8961 3.04583L28.2265 0.312633C27.8426 -0.0803761 27.2176 -0.0893081 26.8426 0.294769L8.61042 19.2842C8.41399 19.4808 8.32471 19.7487 8.34256 20.0077C8.33364 20.2757 8.42292 20.5347 8.61042 20.7312L26.8426 39.7296C27.2176 40.1137 27.8426 40.1048 28.2265 39.7118L30.8961 36.9786C31.2801 36.5856 31.289 35.9514 30.914 35.5673L15.9854 20.0077Z" fill="#E2E2E2"/>
<mask id="mask0_101_475" style="mask-type:alpha" maskUnits="userSpaceOnUse" x="8" y="0" width="24" height="41">
<path fill-rule="evenodd" clip-rule="evenodd" d="M15.9854 20.0077L30.914 4.45709C31.289 4.07301 31.2801 3.43884 30.8961 3.04583L28.2265 0.312633C27.8426 -0.0803761 27.2176 -0.0893081 26.8426 0.294769L8.61042 19.2842C8.41399 19.4808 8.32471 19.7487 8.34256 20.0077C8.33364 20.2757 8.42292 20.5347 8.61042 20.7312L26.8426 39.7296C27.2176 40.1137 27.8426 40.1048 28.2265 39.7118L30.8961 36.9786C31.2801 36.5856 31.289 35.9514 30.914 35.5673L15.9854 20.0077Z" fill="white"/>
</mask>
<g mask="url(#mask0_101_475)">
<rect width="40" height="40" fill="#E2E2E2"/>
</g>
</svg>
