<svg width="125" height="173" viewBox="0 0 125 173" fill="none" xmlns="http://www.w3.org/2000/svg">
<path d="M49.9999 141.5C29.9999 137.9 25.6666 117.333 25.9999 107.5L28.5 108L30.5 100.5L2 92.5L0 99L3.49989 100.5C-6.90011 142.5 30.1666 162.667 49.9999 167.5V172.5H58.4999V138H49.9999V141.5Z" fill="#DF362F"/>
<path d="M75 141.5C95 137.9 99.3333 117.333 99 107.5L96.4999 108L94.4999 100.5L123 92.5L125 99L121.5 100.5C131.9 142.5 94.8334 162.667 75 167.5V172.5H66.5V138H75V141.5Z" fill="#F39200"/>
<path d="M34 93.5L5.5 84.5L9 77.5L12.5 78.5C27.3 47.3 51.6667 13.1667 62 0C76.4 16.8 102.667 59.3333 114 78.5L117 77.5L119.5 84.5L91.5 92L89 85.5L91.5 84.5L62 42.5L35 85.5L37.5 86.5L34 93.5Z" fill="#459BC7"/>
</svg>
