<svg width="145" height="43" viewBox="0 0 145 43" fill="none" xmlns="http://www.w3.org/2000/svg">
<path d="M12.4 35.0919C7.43998 34.1991 6.36532 29.0986 6.44799 26.6599L7.068 26.7839L7.564 24.9239L0.496 22.9399L0 24.5519L0.867972 24.9239C-1.71123 35.3399 7.48131 40.3413 12.4 41.5399V42.7799H14.508V34.2239H12.4V35.0919Z" fill="#DF362F"/>
<path d="M18.6 35.0919C23.56 34.1991 24.6347 29.0986 24.552 26.6599L23.932 26.7839L23.436 24.9239L30.504 22.9399L31 24.5519L30.132 24.9239C32.7112 35.3399 23.5187 40.3413 18.6 41.5399V42.7799H16.492V34.2239H18.6V35.0919Z" fill="#F39200"/>
<path d="M8.43177 23.188L1.36377 20.956L2.23177 19.22L3.09977 19.468C6.77017 11.7304 12.8131 3.26533 15.3758 0C18.947 4.1664 25.4611 14.7147 28.2718 19.468L29.0158 19.22L29.6358 20.956L22.6918 22.816L22.0718 21.204L22.6918 20.956L15.3758 10.54L8.67977 21.204L9.29977 21.452L8.43177 23.188Z" fill="#459BC7"/>
<path d="M55.1309 12.7331L51.277 35H46.4138L50.283 12.7331H55.1309ZM61.707 12.7331L61.0341 16.6023H43.1563L43.8445 12.7331H61.707ZM57.7766 26.9864L57.8072 26.6652C57.9398 25.4825 58.2303 24.3712 58.6789 23.3313C59.1275 22.2914 59.724 21.3789 60.4682 20.5938C61.2125 19.8088 62.0893 19.197 63.0987 18.7586C64.108 18.3202 65.2397 18.1163 66.4938 18.1469C67.6968 18.1673 68.7368 18.4069 69.6136 18.8657C70.5006 19.3143 71.2245 19.926 71.7852 20.7009C72.346 21.4757 72.7436 22.3627 72.9781 23.3619C73.2126 24.361 73.2788 25.4214 73.1769 26.5429L73.1463 26.8793C73.0138 28.0518 72.7181 29.1529 72.2593 30.1826C71.8005 31.2124 71.199 32.1147 70.4547 32.8895C69.7104 33.6644 68.8336 34.271 67.8243 34.7094C66.8149 35.1376 65.6883 35.3365 64.4445 35.3059C63.2516 35.2855 62.2117 35.051 61.3247 34.6024C60.4478 34.1538 59.7291 33.5471 59.1683 32.7825C58.6076 32.0178 58.2099 31.141 57.9754 30.1521C57.741 29.1631 57.6747 28.1079 57.7766 26.9864ZM62.4716 26.6652L62.4411 26.9864C62.4105 27.4452 62.3952 27.9396 62.3952 28.4698C62.4054 28.9898 62.4767 29.4894 62.6093 29.9685C62.752 30.4477 62.9865 30.8403 63.3128 31.1461C63.6492 31.4418 64.1182 31.5998 64.7197 31.6202C65.3723 31.6406 65.9228 31.5081 66.3714 31.2226C66.82 30.9371 67.187 30.5548 67.4725 30.0756C67.7682 29.5862 67.9925 29.0611 68.1454 28.5004C68.3085 27.9396 68.4156 27.3942 68.4666 26.864L68.4972 26.5429C68.5379 26.0943 68.5532 25.6049 68.543 25.0747C68.543 24.5344 68.4717 24.0246 68.3289 23.5454C68.1964 23.056 67.9619 22.6584 67.6255 22.3525C67.289 22.0365 66.82 21.8682 66.2185 21.8479C65.566 21.8275 65.0103 21.9651 64.5515 22.2608C64.1029 22.5564 63.7359 22.949 63.4504 23.4383C63.1649 23.9277 62.9457 24.4579 62.7928 25.0288C62.6399 25.5896 62.5328 26.135 62.4716 26.6652ZM81.0223 22.1843L78.8048 35H74.1251L77.0002 18.4528H81.374L81.0223 22.1843ZM79.7682 26.1452L78.6671 26.1911C78.7691 25.192 78.9832 24.2081 79.3095 23.2395C79.6459 22.271 80.0996 21.3993 80.6705 20.6244C81.2517 19.8393 81.9654 19.2225 82.8116 18.7739C83.668 18.3151 84.6621 18.101 85.7938 18.1316C86.64 18.152 87.3384 18.3304 87.8889 18.6669C88.4497 18.9931 88.8881 19.4264 89.2042 19.9668C89.5304 20.5071 89.7445 21.124 89.8465 21.8173C89.9484 22.5004 89.9637 23.214 89.8923 23.9583L88.0419 35H83.3774L85.1209 24.5242C85.182 24.045 85.1871 23.6066 85.1362 23.2089C85.0852 22.8113 84.9323 22.4851 84.6774 22.2302C84.4327 21.9753 84.0401 21.8428 83.4998 21.8326C82.8983 21.8122 82.3834 21.9345 81.9552 22.1996C81.527 22.4545 81.165 22.796 80.8694 23.2242C80.5737 23.6524 80.3341 24.1214 80.1506 24.6312C79.9773 25.141 79.8498 25.6457 79.7682 26.1452ZM89.1889 25.9005L87.7513 26.0382C87.8533 25.0492 88.0623 24.0858 88.3783 23.1478C88.7046 22.1996 89.1532 21.3432 89.7241 20.5785C90.2951 19.8139 90.9986 19.2123 91.8346 18.7739C92.6706 18.3253 93.6494 18.1112 94.7709 18.1316C95.6783 18.1622 96.4276 18.3559 97.019 18.7127C97.6205 19.0696 98.0793 19.5488 98.3954 20.1503C98.7216 20.7518 98.9357 21.4298 99.0377 22.1843C99.1396 22.9286 99.1447 23.7034 99.053 24.5089L97.3095 35H92.6145L94.3733 24.4936C94.4344 24.0246 94.4395 23.5913 94.3885 23.1937C94.3376 22.796 94.1897 22.4749 93.945 22.2302C93.7004 21.9753 93.3078 21.8428 92.7675 21.8326C92.1965 21.8122 91.702 21.9243 91.284 22.169C90.866 22.4035 90.5143 22.7196 90.2288 23.1172C89.9433 23.5148 89.719 23.9583 89.5559 24.4477C89.3928 24.9269 89.2704 25.4112 89.1889 25.9005ZM107.724 31.6049C108.234 31.6151 108.683 31.5233 109.07 31.3296C109.457 31.1257 109.768 30.8403 110.003 30.4732C110.248 30.1062 110.411 29.6831 110.492 29.2039L114.881 29.1886C114.8 30.463 114.407 31.5641 113.704 32.4919C113.011 33.4095 112.124 34.1181 111.043 34.6177C109.972 35.1071 108.82 35.3365 107.587 35.3059C106.394 35.2855 105.369 35.051 104.513 34.6024C103.656 34.1436 102.958 33.5319 102.417 32.7672C101.887 31.9923 101.515 31.1053 101.301 30.1062C101.087 29.107 101.031 28.062 101.133 26.9711L101.194 26.5582C101.316 25.3959 101.592 24.305 102.02 23.2854C102.448 22.2557 103.019 21.3534 103.733 20.5785C104.457 19.7935 105.313 19.1868 106.302 18.7586C107.291 18.3202 108.402 18.1163 109.636 18.1469C110.941 18.1673 112.052 18.463 112.97 19.0339C113.887 19.5947 114.586 20.3644 115.065 21.3432C115.544 22.3117 115.774 23.4281 115.753 24.6924L111.364 24.6771C111.374 24.2081 111.318 23.7595 111.196 23.3313C111.084 22.9031 110.87 22.5564 110.553 22.2914C110.248 22.0161 109.819 21.8682 109.269 21.8479C108.637 21.8275 108.112 21.9651 107.694 22.2608C107.276 22.5462 106.939 22.9337 106.684 23.4231C106.429 23.9022 106.236 24.4222 106.103 24.983C105.981 25.5335 105.894 26.0586 105.843 26.5582L105.813 26.9558C105.772 27.3738 105.736 27.8479 105.706 28.378C105.685 28.898 105.721 29.4027 105.813 29.8921C105.915 30.3815 106.108 30.7842 106.394 31.1002C106.689 31.4163 107.133 31.5845 107.724 31.6049ZM108.336 11.4944L110.125 13.6201L112.694 11.5097L116.793 11.4332L116.808 11.7391L111.609 15.9753H108.627L104.467 11.7085V11.4179L108.336 11.4944ZM116.961 26.9864L116.992 26.6652C117.124 25.4825 117.415 24.3712 117.864 23.3313C118.312 22.2914 118.909 21.3789 119.653 20.5938C120.397 19.8088 121.274 19.197 122.283 18.7586C123.293 18.3202 124.424 18.1163 125.678 18.1469C126.881 18.1673 127.921 18.4069 128.798 18.8657C129.685 19.3143 130.409 19.926 130.97 20.7009C131.531 21.4757 131.928 22.3627 132.163 23.3619C132.397 24.361 132.464 25.4214 132.362 26.5429L132.331 26.8793C132.198 28.0518 131.903 29.1529 131.444 30.1826C130.985 31.2124 130.384 32.1147 129.639 32.8895C128.895 33.6644 128.018 34.271 127.009 34.7094C126 35.1376 124.873 35.3365 123.629 35.3059C122.436 35.2855 121.396 35.051 120.509 34.6024C119.633 34.1538 118.914 33.5471 118.353 32.7825C117.792 32.0178 117.395 31.141 117.16 30.1521C116.926 29.1631 116.859 28.1079 116.961 26.9864ZM121.656 26.6652L121.626 26.9864C121.595 27.4452 121.58 27.9396 121.58 28.4698C121.59 28.9898 121.661 29.4894 121.794 29.9685C121.937 30.4477 122.171 30.8403 122.497 31.1461C122.834 31.4418 123.303 31.5998 123.904 31.6202C124.557 31.6406 125.107 31.5081 125.556 31.2226C126.005 30.9371 126.372 30.5548 126.657 30.0756C126.953 29.5862 127.177 29.0611 127.33 28.5004C127.493 27.9396 127.6 27.3942 127.651 26.864L127.682 26.5429C127.723 26.0943 127.738 25.6049 127.728 25.0747C127.728 24.5344 127.656 24.0246 127.514 23.5454C127.381 23.056 127.147 22.6584 126.81 22.3525C126.474 22.0365 126.005 21.8682 125.403 21.8479C124.751 21.8275 124.195 21.9651 123.736 22.2608C123.288 22.5564 122.921 22.949 122.635 23.4383C122.35 23.9277 122.13 24.4579 121.977 25.0288C121.825 25.5896 121.717 26.135 121.656 26.6652Z" fill="#459BC7"/>
<path d="M141.312 32.022C141.171 31.9938 141.061 32.0314 140.983 32.135C140.904 32.2353 140.846 32.3577 140.809 32.502C140.768 32.6432 140.735 32.7608 140.71 32.8549C140.663 33.0463 140.6 33.2376 140.522 33.429C140.443 33.6172 140.344 33.7882 140.225 33.9419C140.106 34.0925 139.962 34.2133 139.792 34.3042C139.623 34.3952 139.424 34.436 139.195 34.4266C138.915 34.414 138.674 34.3434 138.47 34.2148C138.266 34.0831 138.097 33.9121 137.962 33.7019C137.827 33.4917 137.727 33.2627 137.661 33.0149C137.595 32.7639 137.565 32.5145 137.571 32.2667C137.574 31.9279 137.637 31.6095 137.759 31.3115C137.879 31.0103 138.061 30.7672 138.305 30.5821C138.547 30.3939 138.853 30.2998 139.223 30.2998L139.218 31.7256C139.086 31.7224 138.972 31.7412 138.875 31.782C138.777 31.8228 138.704 31.8871 138.654 31.975C138.6 32.0628 138.574 32.1773 138.574 32.3185C138.57 32.4283 138.591 32.5381 138.635 32.6479C138.679 32.7545 138.741 32.8471 138.823 32.9255C138.905 33.0008 139.005 33.0478 139.124 33.0667C139.221 33.0855 139.303 33.0729 139.369 33.029C139.435 32.982 139.488 32.9192 139.529 32.8408C139.566 32.7592 139.598 32.6745 139.623 32.5867C139.648 32.4957 139.668 32.4142 139.684 32.342C139.753 32.0628 139.844 31.7914 139.957 31.5279C140.07 31.2613 140.23 31.0433 140.437 30.8739C140.644 30.7044 140.917 30.6245 141.256 30.6339C141.544 30.6464 141.791 30.7248 141.995 30.8691C142.198 31.0135 142.365 31.1985 142.493 31.4244C142.619 31.6471 142.71 31.8903 142.766 32.1538C142.826 32.4142 142.854 32.6667 142.851 32.9114C142.845 33.2533 142.776 33.5764 142.644 33.8807C142.509 34.185 142.315 34.4313 142.06 34.6195C141.806 34.8077 141.494 34.905 141.124 34.9113L141.129 33.5749C141.286 33.5717 141.417 33.5419 141.524 33.4855C141.627 33.429 141.707 33.3459 141.764 33.2361C141.817 33.1263 141.846 32.9945 141.849 32.8408C141.849 32.7216 141.831 32.6039 141.797 32.4879C141.759 32.3718 141.701 32.2714 141.623 32.1867C141.541 32.102 141.438 32.0471 141.312 32.022ZM142.084 30.5497C141.858 30.556 141.671 30.4807 141.524 30.3239C141.377 30.1639 141.303 29.9741 141.303 29.7545C141.3 29.538 141.366 29.3529 141.5 29.1992C141.635 29.0424 141.813 28.9624 142.032 28.9592C142.261 28.953 142.449 29.0298 142.597 29.1898C142.741 29.3467 142.813 29.5365 142.813 29.7592C142.816 29.9694 142.751 30.1529 142.616 30.3097C142.481 30.4666 142.304 30.5466 142.084 30.5497ZM138.931 26.5035L142.757 27.167V28.6022L137.665 27.7175V26.3764L138.931 26.5035ZM137.623 24.8424L138.992 25.0212C138.98 25.1028 138.969 25.1828 138.959 25.2612C138.95 25.3396 138.945 25.4196 138.945 25.5012C138.942 25.68 138.964 25.8416 139.011 25.9859C139.055 26.127 139.123 26.2509 139.214 26.3576C139.304 26.4611 139.417 26.5474 139.552 26.6164C139.684 26.6854 139.835 26.7372 140.004 26.7717L139.872 27.0352C139.631 27.0007 139.377 26.9474 139.11 26.8752C138.84 26.8031 138.588 26.7027 138.352 26.5741C138.114 26.4423 137.923 26.2745 137.778 26.0706C137.631 25.8635 137.557 25.6094 137.557 25.3083C137.557 25.2298 137.563 25.153 137.576 25.0777C137.589 24.9993 137.604 24.9208 137.623 24.8424ZM142.084 26.3252C141.858 26.3315 141.671 26.2562 141.524 26.0994C141.377 25.9394 141.303 25.7496 141.303 25.53C141.3 25.3135 141.366 25.1284 141.5 24.9747C141.635 24.8179 141.813 24.7379 142.032 24.7347C142.261 24.7285 142.449 24.8053 142.597 24.9653C142.741 25.1222 142.813 25.312 142.813 25.5347C142.816 25.7449 142.751 25.9284 142.616 26.0852C142.481 26.2421 142.304 26.3221 142.084 26.3252ZM140.291 24.1424L140.192 24.133C139.828 24.0922 139.486 24.0028 139.166 23.8648C138.846 23.7267 138.566 23.5432 138.324 23.3142C138.083 23.0852 137.894 22.8154 137.759 22.5049C137.625 22.1943 137.562 21.8461 137.571 21.4602C137.578 21.09 137.651 20.7701 137.792 20.5003C137.93 20.2273 138.119 20.0046 138.357 19.8321C138.596 19.6595 138.868 19.5372 139.176 19.465C139.483 19.3929 139.81 19.3725 140.155 19.4039L140.258 19.4133C140.619 19.4541 140.958 19.545 141.275 19.6862C141.591 19.8274 141.869 20.0125 142.107 20.2415C142.346 20.4705 142.533 20.7403 142.667 21.0508C142.799 21.3614 142.86 21.708 142.851 22.0908C142.845 22.4578 142.773 22.7778 142.634 23.0507C142.496 23.3205 142.31 23.5417 142.075 23.7142C141.839 23.8867 141.569 24.0091 141.265 24.0812C140.961 24.1534 140.636 24.1738 140.291 24.1424ZM140.192 22.6978L140.291 22.7072C140.432 22.7166 140.584 22.7213 140.748 22.7213C140.908 22.7182 141.061 22.6962 141.209 22.6554C141.356 22.6115 141.477 22.5394 141.571 22.439C141.662 22.3354 141.711 22.1911 141.717 22.0061C141.723 21.8053 141.682 21.6359 141.595 21.4979C141.507 21.3598 141.389 21.2469 141.242 21.159C141.091 21.0681 140.929 20.9991 140.757 20.952C140.584 20.9018 140.417 20.8689 140.253 20.8532L140.155 20.8438C140.017 20.8312 139.866 20.8265 139.703 20.8297C139.537 20.8297 139.38 20.8516 139.232 20.8955C139.082 20.9363 138.959 21.0085 138.865 21.112C138.768 21.2155 138.716 21.3598 138.71 21.5449C138.704 21.7457 138.746 21.9167 138.837 22.0578C138.928 22.1958 139.049 22.3088 139.199 22.3966C139.35 22.4845 139.513 22.5519 139.689 22.599C139.861 22.646 140.029 22.679 140.192 22.6978ZM142.084 19.5315C141.858 19.5378 141.671 19.4625 141.524 19.3056C141.377 19.1456 141.303 18.9558 141.303 18.7362C141.3 18.5198 141.366 18.3347 141.5 18.181C141.635 18.0241 141.813 17.9441 142.032 17.941C142.261 17.9347 142.449 18.0116 142.597 18.1716C142.741 18.3284 142.813 18.5182 142.813 18.7409C142.816 18.9511 142.751 19.1346 142.616 19.2915C142.481 19.4483 142.304 19.5283 142.084 19.5315Z" fill="#459BC7"/>
</svg>
