<svg width="40" height="41" viewBox="0 0 40 41" fill="none" xmlns="http://www.w3.org/2000/svg">
<path fill-rule="evenodd" clip-rule="evenodd" d="M23.5384 20.0077L8.60986 4.45709C8.23486 4.07301 8.24379 3.43884 8.62772 3.04583L11.2974 0.312633C11.6813 -0.0803761 12.3063 -0.0893081 12.6813 0.294769L30.9134 19.2932C31.1099 19.4897 31.1991 19.7576 31.1813 20.0167C31.1902 20.2846 31.1009 20.5437 30.9134 20.7402L12.6813 39.7296C12.3063 40.1137 11.6813 40.1048 11.2974 39.7118L8.62772 36.9786C8.24379 36.5856 8.23486 35.9514 8.60986 35.5673L23.5384 20.0077Z" fill="#E2E2E2"/>
<mask id="mask0_101_476" style="mask-type:alpha" maskUnits="userSpaceOnUse" x="8" y="0" width="24" height="41">
<path fill-rule="evenodd" clip-rule="evenodd" d="M23.5384 20.0077L8.60986 4.45709C8.23486 4.07301 8.24379 3.43884 8.62772 3.04583L11.2974 0.312633C11.6813 -0.0803761 12.3063 -0.0893081 12.6813 0.294769L30.9134 19.2932C31.1099 19.4897 31.1991 19.7576 31.1813 20.0167C31.1902 20.2846 31.1009 20.5437 30.9134 20.7402L12.6813 39.7296C12.3063 40.1137 11.6813 40.1048 11.2974 39.7118L8.62772 36.9786C8.24379 36.5856 8.23486 35.9514 8.60986 35.5673L23.5384 20.0077Z" fill="white"/>
</mask>
<g mask="url(#mask0_101_476)">
<rect width="40" height="40" fill="#E2E2E2"/>
</g>
</svg>
