<svg width="24" height="24" viewBox="0 0 24 24" fill="none" xmlns="http://www.w3.org/2000/svg">
<path fill-rule="evenodd" clip-rule="evenodd" d="M12.2176 0C5.71098 0 0.43575 5.23398 0.43575 11.691C0.43575 13.8997 1.05354 15.9655 2.12641 17.7278L0 24L6.52307 21.9277C8.211 22.8537 10.1523 23.382 12.2176 23.382C18.7251 23.382 24 18.1473 24 11.691C24 5.23398 18.7251 0 12.2176 0V0ZM18.0762 16.1308C17.799 16.818 16.5455 17.4451 15.9924 17.474C15.4398 17.5033 15.4241 17.9022 12.4116 16.5936C9.39958 15.2846 7.58742 12.1019 7.44455 11.897C7.30156 11.6927 6.27776 10.2337 6.33299 8.76545C6.3886 7.29689 7.19265 6.60405 7.47964 6.31589C7.7663 6.0273 8.09496 5.97561 8.29564 5.97234C8.53285 5.96848 8.68649 5.96527 8.86205 5.97175C9.03744 5.97839 9.3009 5.93505 9.52901 6.5417C9.75701 7.14829 10.3027 8.63918 10.3725 8.79111C10.4423 8.9432 10.4855 9.11929 10.378 9.31455C10.2702 9.51025 10.215 9.6325 10.0587 9.80114C9.90144 9.96979 9.72792 10.1784 9.58767 10.3073C9.43124 10.4501 9.26785 10.6058 9.43231 10.911C9.59667 11.216 10.1637 12.2158 11.0276 13.0397C12.1379 14.0989 13.0954 14.4502 13.39 14.6103C13.6855 14.7712 13.8618 14.7533 14.045 14.5605C14.2273 14.3677 14.8292 13.717 15.0412 13.4265C15.2531 13.1352 15.4516 13.1922 15.7238 13.3017C15.9958 13.4116 17.4465 14.1886 17.742 14.3491C18.0372 14.5092 18.2345 14.5917 18.305 14.7187C18.3756 14.8462 18.3533 15.4436 18.0762 16.1308V16.1308Z" fill="#459BC7"/>
<mask id="mask0_88_467" style="mask-type:alpha" maskUnits="userSpaceOnUse" x="0" y="0" width="24" height="24">
<path fill-rule="evenodd" clip-rule="evenodd" d="M12.2176 0C5.71098 0 0.43575 5.23398 0.43575 11.691C0.43575 13.8997 1.05354 15.9655 2.12641 17.7278L0 24L6.52307 21.9277C8.211 22.8537 10.1523 23.382 12.2176 23.382C18.7251 23.382 24 18.1473 24 11.691C24 5.23398 18.7251 0 12.2176 0V0ZM18.0762 16.1308C17.799 16.818 16.5455 17.4451 15.9924 17.474C15.4398 17.5033 15.4241 17.9022 12.4116 16.5936C9.39958 15.2846 7.58742 12.1019 7.44455 11.897C7.30156 11.6927 6.27776 10.2337 6.33299 8.76545C6.3886 7.29689 7.19265 6.60405 7.47964 6.31589C7.7663 6.0273 8.09496 5.97561 8.29564 5.97234C8.53285 5.96848 8.68649 5.96527 8.86205 5.97175C9.03744 5.97839 9.3009 5.93505 9.52901 6.5417C9.75701 7.14829 10.3027 8.63918 10.3725 8.79111C10.4423 8.9432 10.4855 9.11929 10.378 9.31455C10.2702 9.51025 10.215 9.6325 10.0587 9.80114C9.90144 9.96979 9.72792 10.1784 9.58767 10.3073C9.43124 10.4501 9.26785 10.6058 9.43231 10.911C9.59667 11.216 10.1637 12.2158 11.0276 13.0397C12.1379 14.0989 13.0954 14.4502 13.39 14.6103C13.6855 14.7712 13.8618 14.7533 14.045 14.5605C14.2273 14.3677 14.8292 13.717 15.0412 13.4265C15.2531 13.1352 15.4516 13.1922 15.7238 13.3017C15.9958 13.4116 17.4465 14.1886 17.742 14.3491C18.0372 14.5092 18.2345 14.5917 18.305 14.7187C18.3756 14.8462 18.3533 15.4436 18.0762 16.1308V16.1308Z" fill="white"/>
</mask>
<g mask="url(#mask0_88_467)">
<rect width="24" height="24" fill="#459BC7"/>
</g>
</svg>
