<?xml version="1.0" standalone="no"?>
<!DOCTYPE svg PUBLIC "-//W3C//DTD SVG 20010904//EN"
 "http://www.w3.org/TR/2001/REC-SVG-20010904/DTD/svg10.dtd">
<svg version="1.0" xmlns="http://www.w3.org/2000/svg"
 width="692.000000pt" height="692.000000pt" viewBox="0 0 692.000000 692.000000"
 preserveAspectRatio="xMidYMid meet">
<metadata>
Created by potrace 1.14, written by Peter Selinger 2001-2017
</metadata>
<g transform="translate(0.000000,692.000000) scale(0.100000,-0.100000)"
fill="#000000" stroke="none">
<path d="M3409 6877 c-19 -23 -36 -44 -39 -47 -3 -3 -54 -70 -113 -150 -58
-80 -110 -149 -114 -155 -5 -5 -26 -35 -48 -65 -22 -30 -43 -56 -47 -58 -5 -2
-8 -8 -8 -14 0 -5 -6 -15 -12 -23 -7 -7 -35 -46 -63 -85 -27 -40 -79 -114
-113 -164 -35 -50 -145 -212 -243 -361 -99 -148 -183 -274 -187 -280 -4 -5
-25 -39 -47 -75 -21 -36 -41 -67 -45 -70 -3 -3 -30 -45 -60 -95 -30 -49 -58
-91 -62 -93 -4 -2 -8 -8 -8 -13 0 -5 -12 -28 -27 -52 -44 -67 -47 -72 -72
-118 -13 -24 -28 -47 -33 -50 -5 -3 -10 -10 -10 -15 -1 -5 -11 -25 -23 -44
-21 -35 -86 -145 -115 -198 -8 -15 -38 -67 -67 -117 -28 -49 -68 -121 -89
-160 -20 -38 -48 -90 -62 -115 -14 -25 -74 -142 -134 -261 l-109 -217 -34 9
c-19 5 -51 13 -70 18 l-36 9 -69 -139 -70 -138 83 -27 c45 -14 87 -27 92 -28
6 -1 15 -4 20 -8 9 -5 115 -38 140 -43 6 -2 33 -10 60 -20 28 -9 57 -18 65
-20 13 -3 633 -198 668 -210 7 -3 38 48 82 135 79 157 79 137 -3 169 l-27 11
51 82 c29 45 66 105 83 133 17 27 34 55 39 60 7 8 72 111 120 190 7 11 24 39
40 62 15 23 27 46 27 52 0 6 5 11 10 11 6 0 10 7 10 15 0 8 5 15 10 15 6 0 10
4 10 10 0 5 44 78 98 163 53 85 102 163 109 173 71 115 138 220 143 224 3 3
11 16 18 30 6 14 41 70 76 125 36 55 80 125 97 155 18 30 36 57 41 58 4 2 8 8
8 12 0 13 83 140 91 140 4 0 21 -19 36 -42 16 -24 72 -104 124 -178 53 -74
113 -160 134 -190 311 -444 559 -798 652 -928 40 -56 73 -107 73 -112 0 -6 3
-10 8 -10 4 0 18 -18 32 -40 14 -22 28 -40 31 -40 4 0 9 -8 12 -17 3 -10 22
-39 41 -64 l36 -47 -50 -21 -50 -21 25 -68 c25 -67 40 -102 56 -134 5 -10 9
-24 9 -32 0 -25 15 -26 86 -6 38 11 78 22 89 24 11 2 45 11 76 20 31 9 66 19
78 21 11 3 29 7 39 10 41 11 98 26 112 30 8 2 15 4 15 5 0 2 19 7 57 15 15 3
38 9 50 14 13 5 26 9 31 10 4 0 8 1 10 2 1 0 9 2 17 4 8 1 85 22 170 45 85 23
160 43 165 44 6 2 24 6 40 10 17 4 44 12 62 17 l32 10 -35 97 c-19 53 -37 104
-39 112 -2 8 -8 27 -14 42 -11 29 -19 29 -93 -1 -24 -9 -31 -7 -48 12 -12 12
-27 33 -33 47 -13 24 -204 343 -239 398 -10 15 -21 34 -25 42 -3 8 -19 34 -35
57 -15 23 -28 46 -28 52 0 6 -4 11 -10 11 -5 0 -10 5 -10 11 0 5 -19 40 -43
77 -24 37 -61 96 -82 132 -21 36 -42 67 -45 70 -5 4 -26 38 -75 122 -37 65
-141 224 -147 226 -5 2 -8 8 -8 13 0 9 -45 79 -219 346 -47 73 -94 147 -105
165 -10 18 -21 35 -25 38 -4 3 -36 50 -71 105 -36 55 -128 192 -205 304 -77
112 -147 214 -155 226 -68 101 -86 125 -92 125 -5 0 -8 5 -8 10 0 6 -22 40
-50 75 -27 35 -50 69 -50 74 0 5 -3 11 -7 13 -5 2 -42 48 -83 103 -41 55 -77
102 -80 105 -4 3 -36 42 -72 87 l-66 83 -33 -43z"/>
<path d="M1018 3148 c-12 -40 -23 -75 -23 -78 -1 -3 -4 -12 -7 -20 -26 -67
-28 -83 -10 -96 9 -7 41 -20 70 -30 37 -13 51 -22 48 -34 -7 -24 -29 -132 -32
-157 -1 -13 -6 -42 -10 -65 -4 -24 -8 -56 -10 -73 -1 -16 -3 -30 -4 -30 -8 0
-13 -356 -5 -410 3 -16 7 -50 10 -75 2 -25 7 -56 10 -70 2 -14 6 -36 9 -50 27
-160 131 -432 221 -575 14 -22 28 -48 31 -57 4 -10 10 -18 14 -18 5 0 12 -9
15 -20 3 -11 12 -26 19 -32 6 -7 25 -31 41 -53 50 -68 146 -177 226 -255 83
-82 90 -88 199 -175 41 -33 77 -62 80 -65 3 -3 12 -9 21 -15 9 -5 50 -32 90
-59 76 -51 86 -56 204 -123 101 -57 269 -137 370 -176 74 -28 242 -84 307
-102 55 -15 56 -17 58 -53 2 -63 2 -97 0 -107 -1 -5 -2 -20 -1 -32 1 -23 2
-23 171 -23 l170 0 0 690 c0 650 -1 690 -17 691 -10 1 -22 0 -28 -1 -27 -5
-73 -5 -97 1 -15 4 -30 4 -33 -1 -3 -5 -18 -5 -33 -1 -15 5 -36 5 -47 1 -11
-4 -32 -4 -47 1 -16 4 -28 7 -29 6 -5 -13 -10 -52 -11 -94 -1 -52 -1 -53 -29
-48 -49 9 -190 56 -248 83 -202 93 -383 271 -503 492 -21 38 -91 205 -93 220
-1 3 -9 32 -19 65 -10 33 -20 71 -23 85 -2 14 -8 44 -13 67 -10 41 -13 71 -25
186 -3 32 -6 61 -6 65 -1 4 -1 26 0 50 l1 44 33 -8 c39 -9 67 -11 65 -4 -1 3
4 14 10 26 6 11 13 32 16 46 2 14 13 58 24 99 32 115 32 122 -3 130 -16 4 -79
21 -140 38 -60 18 -117 33 -125 35 -8 2 -42 12 -75 22 -33 10 -64 19 -70 20
-5 1 -50 14 -100 27 -49 14 -148 42 -220 62 -107 30 -281 79 -357 101 -14 4
-22 -9 -40 -68z"/>
<path d="M5700 3169 c-96 -28 -182 -51 -190 -53 -8 -2 -114 -32 -235 -66 -121
-34 -229 -65 -240 -67 -11 -3 -27 -7 -35 -10 -19 -7 -30 -11 -55 -16 -18 -4
-91 -25 -120 -33 -5 -2 -26 -7 -45 -12 -33 -7 -44 -24 -31 -47 3 -5 6 -14 7
-20 5 -26 15 -67 37 -150 26 -97 23 -94 95 -82 29 5 32 3 33 -21 1 -15 1 -31
0 -35 -1 -5 -4 -41 -6 -80 -9 -124 -12 -154 -19 -166 -4 -6 -5 -11 -3 -11 2 0
-4 -35 -14 -77 -11 -43 -21 -87 -24 -98 -22 -93 -109 -289 -166 -373 -16 -23
-29 -45 -29 -48 0 -3 -6 -12 -12 -19 -7 -8 -26 -31 -43 -51 -85 -106 -231
-222 -356 -282 -46 -22 -148 -60 -180 -67 -9 -2 -34 -8 -54 -14 -21 -6 -42 -8
-47 -5 -4 3 -8 34 -8 70 0 38 -4 63 -9 59 -5 -3 -12 -1 -16 5 -4 6 -12 7 -22
1 -9 -5 -28 -5 -42 -1 -14 4 -35 5 -46 3 -11 -2 -41 -4 -67 -3 -27 0 -56 0
-65 0 -10 0 -31 0 -48 0 l-30 0 3 -690 2 -690 170 0 170 0 0 28 c-3 183 -5
174 57 187 60 12 290 93 403 142 168 73 436 220 497 273 7 5 17 10 23 10 5 0
10 4 10 8 0 5 10 13 23 19 91 42 472 400 521 491 5 9 12 19 16 22 9 7 110 157
132 195 46 83 72 136 95 190 40 94 46 109 48 118 2 4 3 8 5 10 1 1 3 9 5 17 2
8 13 47 25 85 11 39 22 81 25 95 8 41 15 74 20 100 6 25 13 80 20 155 5 50 5
298 0 345 -4 39 -13 119 -19 165 -5 33 -34 181 -42 206 -3 12 14 24 66 49 56
25 70 36 65 49 -4 9 -11 30 -16 46 -20 75 -55 184 -59 188 -3 3 -84 -17 -180
-44z"/>
</g>
</svg>
